<?xml version="1.0" encoding="UTF-8" ?>
<!DOCTYPE svg PUBLIC "-//W3C//DTD SVG 1.1//EN" "http://www.w3.org/Graphics/SVG/1.1/DTD/svg11.dtd">
<svg width="359pt" height="436pt" viewBox="0 0 359 436" version="1.1" xmlns="http://www.w3.org/2000/svg">
<g id="#e91e63">
<path fill="#e91e63" opacity="1.00" d=" M 113.39 2.46 C 125.80 0.53 138.66 8.01 143.63 19.43 C 147.49 27.90 147.04 38.21 142.17 46.19 C 140.65 49.11 137.84 51.11 136.27 53.97 C 138.26 58.66 141.25 62.86 143.63 67.36 C 144.49 69.54 147.20 68.73 149.01 68.96 C 170.84 68.60 192.76 69.43 214.54 68.55 C 217.29 64.24 219.76 59.74 222.23 55.26 C 223.55 53.40 221.22 52.03 220.26 50.71 C 213.44 43.49 211.04 32.54 214.03 23.10 C 217.00 12.49 226.55 4.19 237.39 2.48 C 246.10 1.49 255.74 3.49 261.97 10.03 C 269.20 16.90 272.81 27.56 270.45 37.35 C 268.06 49.42 257.22 59.24 244.94 60.31 C 240.41 61.15 236.00 59.36 231.50 59.35 C 229.41 62.39 227.65 65.66 226.07 68.99 C 232.07 69.86 238.14 70.36 244.01 72.00 C 275.80 79.68 303.15 103.58 314.91 134.11 C 317.68 140.59 319.02 147.51 320.77 154.29 C 325.46 156.28 330.59 157.31 334.93 160.12 C 350.95 169.05 359.88 187.96 358.34 206.00 C 359.57 219.79 354.63 233.53 345.83 244.05 C 351.34 284.60 342.25 327.23 319.27 361.26 C 290.53 404.41 240.90 433.17 188.96 435.34 C 179.42 434.58 169.82 436.09 160.33 434.55 C 115.54 429.79 73.54 405.50 46.23 369.82 C 19.50 335.08 7.51 289.47 13.40 246.06 C 14.18 242.84 10.89 240.89 9.47 238.43 C -0.20 224.26 -1.05 205.71 2.56 189.40 C 6.38 171.93 21.34 158.44 38.49 154.46 C 42.58 133.82 52.14 114.07 67.24 99.24 C 84.58 81.66 108.38 71.04 132.92 68.99 C 131.36 65.65 129.59 62.40 127.50 59.36 C 123.00 59.35 118.59 61.15 114.06 60.31 C 101.25 59.21 90.13 48.59 88.27 35.90 C 85.29 20.40 97.43 3.58 113.39 2.46 M 115.44 12.49 C 104.14 13.14 95.67 25.28 98.77 36.12 C 101.15 46.79 113.94 53.11 123.95 48.94 C 131.89 46.00 136.90 37.27 135.73 28.93 C 134.83 19.16 125.10 11.55 115.44 12.49 M 240.45 12.50 C 232.92 13.12 225.94 18.58 223.88 25.91 C 221.45 33.97 224.95 43.52 232.40 47.64 C 239.47 51.89 249.10 50.65 255.04 44.98 C 262.09 38.58 262.69 26.69 256.58 19.45 C 252.81 14.61 246.53 12.03 240.45 12.50 M 125.31 80.41 C 101.73 84.19 79.91 97.58 65.79 116.82 C 53.98 132.61 47.38 152.26 47.51 172.00 C 47.54 186.33 47.50 200.66 47.52 214.99 C 47.89 240.72 59.85 265.89 79.22 282.75 C 95.58 297.13 117.16 305.67 139.00 305.64 C 166.33 305.63 193.66 305.65 220.99 305.64 C 248.49 305.49 275.31 291.72 292.11 270.06 C 304.75 253.93 312.01 233.54 311.82 213.00 C 311.80 198.66 311.86 184.32 311.79 169.98 C 311.48 142.97 298.22 116.63 277.21 99.76 C 260.90 86.60 240.02 78.96 219.01 79.35 C 192.01 79.38 165.01 79.36 138.01 79.36 C 133.76 79.38 129.51 79.72 125.31 80.41 M 35.29 166.38 C 21.78 171.19 11.89 184.69 11.49 199.04 C 11.42 204.33 11.31 209.64 11.59 214.94 C 12.79 231.32 26.44 245.85 42.79 247.83 C 37.86 233.78 36.30 218.82 36.82 204.00 C 36.81 191.29 36.80 178.59 36.86 165.89 C 36.47 166.01 35.68 166.26 35.29 166.38 M 322.38 166.04 C 322.44 183.35 322.55 200.66 322.36 217.97 C 322.22 228.20 319.25 238.05 316.91 247.88 C 333.01 245.50 346.56 231.38 347.72 215.06 C 347.90 209.03 347.93 202.98 347.70 196.94 C 346.45 182.93 336.08 169.69 322.38 166.04 M 22.85 251.75 C 17.74 296.48 33.45 342.91 64.42 375.55 C 68.44 379.56 72.18 384.02 76.98 387.12 C 78.33 380.24 79.73 373.29 82.84 366.94 C 92.89 344.50 116.46 329.15 141.02 328.83 C 167.68 328.87 194.35 328.60 221.01 328.97 C 250.31 330.29 276.78 353.63 281.42 382.65 C 281.80 383.88 281.74 387.70 283.84 386.07 C 321.22 354.24 341.33 303.76 336.87 254.93 C 336.69 254.06 336.72 251.28 335.14 252.31 C 328.61 255.72 321.51 258.15 314.08 258.43 C 311.19 258.09 310.34 261.20 309.13 263.17 C 292.14 294.60 257.65 315.32 221.98 316.06 C 193.66 316.14 165.34 316.15 137.02 316.05 C 101.64 315.19 67.43 294.70 50.44 263.59 C 49.10 261.44 48.23 257.95 45.03 258.38 C 37.13 258.24 29.82 255.14 22.85 251.75 M 135.43 339.57 C 108.85 342.60 86.73 367.23 87.18 394.08 C 87.01 395.42 88.26 396.11 89.16 396.80 C 96.81 402.08 104.85 406.81 113.28 410.75 C 163.81 434.71 227.66 429.10 272.17 394.94 C 273.18 366.12 247.88 339.63 219.03 339.23 C 191.17 339.37 163.27 338.71 135.43 339.57 Z" />
<path fill="#e91e63" opacity="1.00" d=" M 125.43 105.61 C 158.27 104.95 191.15 105.52 224.00 105.32 C 244.93 104.65 265.80 113.72 280.05 128.96 C 293.20 142.82 300.86 161.86 300.53 181.00 C 300.49 191.66 300.57 202.32 300.49 212.98 C 299.73 239.54 283.54 265.01 259.77 276.89 C 249.12 282.60 237.03 285.31 225.00 285.36 C 194.00 285.32 163.01 285.39 132.02 285.33 C 109.28 285.05 87.13 273.65 73.50 255.48 C 63.67 242.51 58.06 226.30 58.27 210.00 C 58.28 200.00 58.28 190.00 58.27 180.00 C 58.16 159.23 67.44 138.69 82.90 124.86 C 94.52 114.09 109.73 107.42 125.43 105.61 M 125.36 117.48 C 98.00 120.64 74.62 143.49 70.62 170.71 C 68.97 182.73 70.13 194.91 69.76 207.00 C 69.28 223.80 75.23 240.87 86.87 253.11 C 98.97 266.44 117.00 274.17 135.00 273.64 C 164.67 273.62 194.33 273.62 224.00 273.64 C 241.98 274.14 259.91 266.27 272.03 253.03 C 282.74 241.46 289.00 225.78 288.85 209.99 C 288.85 199.66 288.90 189.33 288.82 179.00 C 288.63 157.34 275.99 136.53 257.34 125.70 C 247.31 119.80 235.65 116.66 224.00 117.09 C 191.13 117.34 158.22 116.59 125.36 117.48 Z" />
<path fill="#e91e63" opacity="1.00" d=" M 119.31 165.34 C 129.42 161.83 141.17 169.48 142.34 180.03 C 144.11 189.98 135.93 200.17 125.85 200.62 C 117.03 201.46 108.31 194.74 106.89 186.00 C 104.96 177.25 110.76 167.80 119.31 165.34 Z" />
<path fill="#e91e63" opacity="1.00" d=" M 229.29 165.24 C 238.72 162.25 249.60 168.65 251.68 178.29 C 254.74 188.81 245.91 200.59 234.97 200.64 C 225.25 201.32 216.12 192.78 216.30 183.01 C 215.89 175.02 221.55 167.27 229.29 165.24 Z" />
<path fill="#e91e63" opacity="1.00" d=" M 152.38 215.42 C 155.51 214.66 158.08 217.00 159.41 219.60 C 166.85 232.88 187.94 234.06 197.39 222.42 C 199.52 219.95 200.61 215.79 204.36 215.39 C 208.74 214.46 212.49 219.72 210.51 223.64 C 204.13 237.20 187.75 244.23 173.32 241.62 C 162.56 239.97 152.30 233.10 148.00 222.90 C 146.67 219.72 149.27 216.16 152.38 215.42 Z" />
</g>
</svg>
