<?xml version="1.0" encoding="UTF-8" ?>
<!DOCTYPE svg PUBLIC "-//W3C//DTD SVG 1.1//EN" "http://www.w3.org/Graphics/SVG/1.1/DTD/svg11.dtd">
<svg width="512pt" height="512pt" viewBox="0 0 512 512" version="1.1" xmlns="http://www.w3.org/2000/svg">
<g id="#e91e63ff">
<path fill="#e91e63" opacity="1.00" d=" M 165.48 29.23 C 178.62 27.56 192.07 33.44 200.58 43.42 C 212.60 57.03 213.63 79.00 202.42 93.41 C 200.33 95.83 198.22 98.23 196.45 100.90 C 199.38 107.26 203.25 113.12 206.68 119.22 C 207.41 120.85 209.17 121.70 210.92 121.47 C 238.94 121.29 266.97 121.64 295.00 121.36 C 298.21 121.42 301.44 121.23 304.61 120.63 C 308.60 114.22 312.36 107.66 315.78 100.93 C 313.61 97.29 310.23 94.59 308.06 90.96 C 303.11 82.85 300.65 72.93 302.42 63.50 C 304.20 51.39 311.84 40.42 322.45 34.37 C 338.21 24.89 360.71 28.20 372.59 42.41 C 381.40 52.13 384.86 66.19 381.76 78.92 C 377.85 96.36 360.99 110.27 342.97 109.86 C 338.03 110.01 333.24 108.67 328.35 108.35 C 325.22 112.31 322.87 116.82 320.81 121.40 C 325.44 122.35 330.18 122.63 334.84 123.42 C 364.29 128.26 391.93 142.90 412.71 164.28 C 428.30 179.96 439.99 199.42 446.63 220.50 C 448.55 226.72 449.78 233.13 451.61 239.38 C 456.35 241.50 461.40 242.81 466.14 244.91 C 479.70 251.08 490.75 262.32 496.99 275.81 C 501.48 284.90 503.09 295.00 504.48 304.92 C 504.05 311.35 505.22 317.88 503.47 324.18 C 501.49 338.95 495.45 353.33 485.44 364.46 C 477.36 373.15 466.07 377.89 454.93 381.27 C 449.93 382.90 444.61 382.75 439.49 383.69 C 437.28 385.11 436.30 387.70 435.04 389.90 C 416.06 425.39 380.60 451.03 341.47 459.66 C 327.26 463.05 312.54 463.56 298.00 463.09 C 292.34 462.31 286.67 463.39 281.00 463.22 C 255.32 463.19 229.64 463.21 203.96 463.21 C 194.87 463.55 185.58 464.19 176.74 461.60 C 163.77 460.22 152.06 454.25 140.33 448.99 C 114.09 436.44 91.55 415.81 77.75 390.11 C 76.49 387.88 75.38 385.42 73.32 383.78 C 70.95 383.09 68.43 383.21 66.00 382.83 C 56.43 381.99 47.65 377.73 38.99 373.90 C 34.63 371.50 30.73 368.26 27.31 364.66 C 23.89 359.79 19.91 355.28 17.27 349.91 C 7.46 331.16 6.70 308.87 11.28 288.54 C 14.87 271.10 26.83 256.01 42.14 247.21 C 48.43 243.35 56.14 241.81 61.42 236.38 C 62.11 234.87 62.43 233.24 62.85 231.65 C 67.76 212.16 76.19 193.44 88.41 177.42 C 107.50 152.19 135.36 133.96 165.92 125.95 C 174.24 123.60 182.82 122.41 191.39 121.38 C 189.38 116.93 187.10 112.57 184.14 108.68 C 182.34 108.23 180.47 108.69 178.67 108.93 C 169.81 110.67 160.22 110.19 152.10 105.92 C 138.64 99.41 129.32 85.04 129.29 70.02 C 128.58 49.91 145.17 30.52 165.48 29.23 M 179.36 189.27 C 141.41 194.44 109.23 227.66 105.48 265.81 C 103.50 282.14 105.16 298.61 104.51 315.00 C 104.78 330.03 108.33 345.15 115.55 358.39 C 130.01 385.36 159.35 403.66 190.02 404.26 C 234.02 404.36 278.02 404.27 322.01 404.30 C 349.19 403.56 375.63 389.20 391.06 366.82 C 393.46 363.43 394.53 359.30 397.06 355.99 C 401.51 349.72 403.18 342.09 405.05 334.78 C 407.40 326.04 406.53 316.93 406.70 308.00 C 406.57 293.97 406.99 279.93 406.46 265.91 C 403.27 236.69 384.14 209.86 357.67 197.15 C 345.44 191.06 331.67 187.98 318.02 188.54 C 280.68 188.93 243.34 188.09 206.00 188.62 C 197.13 188.88 188.18 188.02 179.36 189.27 Z" />
<path fill="#e91e63" opacity="1.00" d=" M 176.43 253.64 C 189.86 251.32 203.94 262.03 205.17 275.64 C 206.80 286.01 200.55 296.46 191.52 301.31 C 186.52 304.06 180.56 304.07 175.04 303.41 C 165.40 301.58 157.19 293.48 155.49 283.78 C 152.13 270.23 162.65 255.42 176.43 253.64 Z" />
<path fill="#e91e63" opacity="1.00" d=" M 324.39 254.49 C 337.30 250.15 352.74 258.63 355.96 271.86 C 361.11 286.77 347.93 304.74 332.01 303.74 C 318.56 304.69 306.23 292.29 306.58 278.96 C 306.19 268.05 313.96 257.54 324.39 254.49 Z" />
<path fill="#e91e63" opacity="1.00" d=" M 218.55 323.60 C 222.97 322.48 226.58 326.14 228.57 329.64 C 232.48 336.49 239.25 341.47 246.90 343.33 C 258.27 345.92 271.67 343.81 279.63 334.63 C 283.18 330.98 284.79 324.81 290.30 323.57 C 296.53 322.32 301.96 329.77 299.32 335.45 C 293.98 346.88 283.23 355.31 271.28 359.00 C 249.57 366.45 222.52 356.64 212.60 335.47 C 209.88 330.64 213.78 325.04 218.55 323.60 Z" />
</g>
<g id="#ffffffff">
<path fill="#ffffff" opacity="1.00" d=" M 179.36 189.27 C 188.18 188.02 197.13 188.88 206.00 188.62 C 243.34 188.09 280.68 188.93 318.02 188.54 C 331.67 187.98 345.44 191.06 357.67 197.15 C 384.14 209.86 403.27 236.69 406.46 265.91 C 406.99 279.93 406.57 293.97 406.70 308.00 C 406.53 316.93 407.40 326.04 405.05 334.78 C 403.18 342.09 401.51 349.72 397.06 355.99 C 394.53 359.30 393.46 363.43 391.06 366.82 C 375.63 389.20 349.19 403.56 322.01 404.30 C 278.02 404.27 234.02 404.36 190.02 404.26 C 159.35 403.66 130.01 385.36 115.55 358.39 C 108.33 345.15 104.78 330.03 104.51 315.00 C 105.16 298.61 103.50 282.14 105.48 265.81 C 109.23 227.66 141.41 194.44 179.36 189.27 M 176.43 253.64 C 162.65 255.42 152.13 270.23 155.49 283.78 C 157.19 293.48 165.40 301.58 175.04 303.41 C 180.56 304.07 186.52 304.06 191.52 301.31 C 200.55 296.46 206.80 286.01 205.17 275.64 C 203.94 262.03 189.86 251.32 176.43 253.64 M 324.39 254.49 C 313.96 257.54 306.19 268.05 306.58 278.96 C 306.23 292.29 318.56 304.69 332.01 303.74 C 347.93 304.74 361.11 286.77 355.96 271.86 C 352.74 258.63 337.30 250.15 324.39 254.49 M 218.55 323.60 C 213.78 325.04 209.88 330.64 212.60 335.47 C 222.52 356.64 249.57 366.45 271.28 359.00 C 283.23 355.31 293.98 346.88 299.32 335.45 C 301.96 329.77 296.53 322.32 290.30 323.57 C 284.79 324.81 283.18 330.98 279.63 334.63 C 271.67 343.81 258.27 345.92 246.90 343.33 C 239.25 341.47 232.48 336.49 228.57 329.64 C 226.58 326.14 222.97 322.48 218.55 323.60 Z" />
</g>
</svg>
