<svg version="1" xmlns="http://www.w3.org/2000/svg" width="682.667" height="682.667" viewBox="0 0 512.000000 512.000000"><path d="M170.3 1.9c-5.6 1.9-12.9 7.3-16.2 12-12.8 18-6.2 42.5 13.9 52 4.9 2.3 6.6 2.6 16.1 2.4l10.7-.1 2.7 5c1.5 2.7 2.5 5.1 2.3 5.3-.2.3-2.4.7-4.9.9-12.1 1.3-28.7 6.5-41.7 13.2-31.6 16.3-53.1 44.2-62.8 81.3-.5 1.9-1.8 3.9-2.9 4.5-1.1.6-2.2 1.3-2.5 1.6-.3.3-3.9 2.2-8 4.2-13.8 6.8-24.9 19.1-29 32.5-1.7 5.6-3.1 13.2-3.2 17.3-.1.8-.5 2-1 2.7-.5.7-.5 1.4.2 1.8.6.3.8 1.1.4 1.6-1 1.6-1.2 5.9-.3 5.3.5-.3.9 1.3.9 3.5 0 9.5 4.4 21.9 11.3 31.9 2.9 4.2 3.4 5.8 2.9 8.4-.9 4.7-.8 41.2.1 48.3 1.4 11.2 1.9 14 3.8 22 7.3 29.7 19.6 54.9 38.2 78.3 6.5 8.1 21.7 23.6 27.6 28 2 1.5 4.4 3.5 5.5 4.4 3.5 3.2 21 14.5 28.6 18.5 12.1 6.3 30.5 13.8 39 15.8.8.2 5.4 1.3 10.1 2.4 4.7 1.1 10.8 2.3 13.5 2.6 2.7.3 6.5.7 8.4 1 4.8.6 40.9.7 43.9.1 1.3-.3 4.9-.8 7.9-1.1 3-.3 5.7-.7 6.1-.9.3-.2 2.2-.7 4.1-1 20.7-3.3 51.9-16.7 72.4-31 19.6-13.7 31.2-25 48.4-47.1 4-5.1 14.9-23.5 18-30.5 5.6-12.5 11.1-28.1 12.7-35.7.2-1 1-5 1.9-8.8 3.7-16.5 5.3-46.1 3.3-62.7-.6-5.5-.5-6 3.2-11.5 5.8-8.9 10.3-21.1 10.5-29.1.1-1.2.4-2.2.7-2.2.9 0 .4-5.3-.5-6.8-.4-.7-.3-1.2.1-1.2 1 0 .9-5.2-.1-12-3.5-22.4-16.6-39.2-36.4-46.6-3.7-1.4-7-2.9-7.4-3.2-.4-.4-1.6-4.5-2.8-9.2-9.2-36.2-35.7-67-70.3-81.6-7-3-20.2-6.9-26.2-7.8-2.2-.3-5.8-.9-8-1.2-2.2-.3-4.2-.8-4.4-1-.7-.6 6.2-11.3 7-10.8 2 1.2 14.9 1.5 18.9.4 13.7-3.5 23.2-13.4 25.9-27 3.3-16.9-6.5-34.1-22.3-39.2-5.3-1.7-17.4-1.8-22.4-.1-4.8 1.6-10.8 5.7-15 10.3-2.5 2.7-7 11.4-7.8 15.2-1.1 5.2-.4 13.8 1.5 18.8 2.1 5.6 6.8 13 8.2 13 1.9 0 .7 4.1-3.3 10.9-2.2 4-4.8 7.6-5.7 8-.9.5-19.6.8-41.6.7l-40-.1-4.7-8c-2.7-4.4-4.8-8.5-4.8-9 0-.6 1.8-3.2 3.9-5.8 13.9-16.8 7.8-42.4-12.4-52.3-7.2-3.5-18.4-4.1-26.2-1.5zM320 136.5c18.4 2.1 39.5 15 50.7 31 6.6 9.3 11.7 21.9 13 32 .9 6.4.9 49.5 0 56-.8 6.1-2.9 13.8-5 18.5-11.7 25.4-30.1 39.7-58.7 45.7-1.4.3-29 .6-61.5.7-64.5.1-71.2-.3-83.9-5.3-24.8-9.6-42.3-31.1-47.3-58.1-1.1-6-.9-52.6.3-59.4 4.1-23.7 20.8-45.1 43-55.3 3-1.4 6-2.6 6.7-2.7.7-.2 1.9-.6 2.7-.9 3.7-1.4 8.1-2 16.4-2.3 4.8-.2 9-.4 9.1-.6.7-.6 108.4 0 114.5.7zM75.6 296.9c5 2.4 13.6 4.9 19.2 5.5 4.4.4 7.2 2 7.2 3.9 0 2 12.9 20.3 18.2 25.7 11.3 11.6 24.3 21 37.1 26.9 8.4 3.9 14.1 6.4 14.7 6.6.3 0 3 .8 6 1.7 9.9 2.9 13.8 3.1 74.3 3.2 51.5.1 61.3-.1 69.8-1.5 25.9-4.4 49.4-16.7 67.6-35.5 7.9-8.2 16.6-19.9 19.4-26.3 1.5-3.4 2.8-4.1 7.7-4.7 5.4-.5 14.9-3.2 19.2-5.4 3.8-2 4.1-2 4.8-.3.3 1 .7 8.3.7 16.3-.1 16.6-.8 25.6-3.2 36.5-.3 1.6-.7 3.7-.9 4.5-.6 4.1-5.6 20.4-8 26.6-7.6 18.9-19.2 38.8-30.4 51.8-5 5.9-20 20.6-20.9 20.6-1.4 0-1.8-.9-2.5-5.5-1.5-9.9-6.7-21.5-13.9-31-12.2-16.2-30.8-27.3-50.7-30.3-7-1-104.7-.8-112 .2-6.5 1-17.4 4.8-23.9 8.3-20.1 11-34.6 30.5-39.1 52.5-.6 3.2-1.5 6-1.9 6.2-.6.4-13-11.4-19.7-18.7-2.3-2.6-13.3-17.4-15-20.3-11.9-19.8-21.8-42.7-24-55.4-.2-1.4-1.1-5.4-1.9-9-2.6-11.7-3.5-21.5-3.4-36 .1-13 .5-19 1.2-19 .2 0 2.1.9 4.3 1.9z"/><path d="M184.1 193c-9.2 3.1-14.3 10.2-14.4 20-.1 19.6 23.6 28.7 37.1 14.1 3.4-3.7 4.8-7.8 5-14 .1-8.5-3.9-15.1-11.5-18.9-5.8-3-10.1-3.3-16.2-1.2zM313.7 192.6c-8.9 3.1-14.7 11-14.7 20.1 0 12.4 9.3 21.6 21.7 21.5 15.2-.1 25.5-17.2 18.5-30.9-4.7-9.1-16.2-13.9-25.5-10.7zM222.2 252.1c-2.8 1.1-4.6 5-3.8 8.2 1 4.1 7.8 12.4 12.9 15.7 14.3 9.4 33.9 9.7 47.2.7 4.5-3 11.5-9.9 11.5-11.4 0-.7.4-1.3.9-1.3 1.2 0 2.3-6.3 1.5-8.4-.4-.9-1.9-2.3-3.5-3.1-3.7-2-7-.7-9.9 3.9-9.4 15.3-33.2 17.2-44.2 3.5-6.8-8.6-8.2-9.4-12.6-7.8z"/></svg>