<svg version="1" xmlns="http://www.w3.org/2000/svg" width="933.333" height="933.333" viewBox="0 0 700.000000 700.000000"><path d="M228.8 39.5c-.2.1-2.3.5-4.8.8-7.6 1-9.2 1.5-16.7 5.2C194.2 52 183.5 65 179 79.8c-3.2 10.4-2.5 24.6 1.5 34.7 3.4 8.6 9.9 17.6 16.7 23.2 5.7 4.7 15.4 9.8 20.8 10.9 4.4 1 22 1.1 28.1.2 2.5-.3 5-.3 5.5 0 1.6 1.1 9.4 14.5 9.4 16.1 0 .9-3 1.6-11.5 2.7-2.7.3-7 1-9.5 1.6-2.5.5-5.2 1.1-6 1.3-5.2 1.1-14.7 3.9-22.5 6.5-8.8 3-31.3 13.5-36.4 16.9-1.4 1-5.5 3.7-9.1 6.1-31.6 21.2-56.6 52.5-70.9 88.7-4.5 11.2-9.8 28.1-10 31.9-.2 2.6-6.4 7-17.1 12.2-6.3 3-11.6 5.9-11.8 6.3-.2.5-.8.9-1.4.9-1.4 0-11.5 8-17.2 13.6-5.1 5.1-13 16.3-16 22.7-11.6 25-13 64-3.3 89.9 3.8 9.9 7.4 16.4 14.2 25.7 9.3 12.6 15.1 17 31.5 23.9 11.1 4.7 19 6.9 28 7.7 3.6.3 7.5 1.2 8.6 2 1.8 1.1 8.5 11.6 10.3 16 1 2.3 9.9 14.5 15.7 21.6 18.6 22.4 42.4 40.2 71.7 53.6 17.8 8.1 26 11 37.7 13.5 5.2 1.1 10.4 2.2 11.5 2.5 2.7.7 185.4.5 192.5-.2 17.7-1.7 29.9-4.2 45-9.1 11.5-3.8 16.9-6.1 30.5-13.1 8.5-4.3 24.8-14.5 27-16.8.6-.6 4.2-3.7 8.1-6.8 16.1-12.9 33.2-33.5 43.4-52.2 4.9-9.1 6.4-10.2 14.5-10.9 13.3-1.2 33.3-8.6 44.7-16.4 14.2-9.8 28.2-31.7 32.4-50.7 5.5-24.6 5.3-42.2-.6-64.3-5.3-19.5-17-36.8-33-48.6-7.1-5.2-12.2-7.8-24.6-12.5l-9.9-3.7-3.6-13.7c-4.3-16.3-6.7-23-12.9-36.2-21.9-46.9-65.3-85.5-114-101.3-15.3-5-24.1-6.9-44.3-9.7-1.6-.2-3.1-.6-3.4-.8-.6-.6 3.2-8.1 6.8-13.3 2.7-3.9 3.1-4.2 6.6-3.6 2.1.3 9 .6 15.3.6 13.5.1 19.9-1.6 29.3-7.7 16.8-10.9 26.2-27.8 26-47.2-.4-37.3-37-63.7-71.9-52-4.2 1.4-9 3.5-10.5 4.5-1.5 1.1-3 2-3.3 2-.6 0-5.3 3.9-9.2 7.7-5.3 5.2-12.4 17.7-14 24.8-.4 1.6-.9 7.2-1.1 12.3-.4 7.5-.1 10.5 1.6 16.2 2.2 7.3 7.3 16.7 11.3 21 5.6 5.9 5.8 6.7 3.3 11.3-9.1 16.9-12.8 22.5-15.4 23-1.4.3-31 .6-65.7.7-59 0-63.2-.1-64.6-1.7-3.8-4.4-15-25.2-14.4-27 .3-1 2.4-3.9 4.6-6.3 16-18.2 17.7-46.5 3.9-66.6-10.2-14.9-25.7-23.6-44.5-24.9-2.4-.1-4.4-.1-4.6 0z"/></svg>