<?xml version="1.0" encoding="UTF-8" ?>
<!DOCTYPE svg PUBLIC "-//W3C//DTD SVG 1.1//EN" "http://www.w3.org/Graphics/SVG/1.1/DTD/svg11.dtd">
<svg width="1393pt" height="431pt" viewBox="0 0 1393 431" version="1.1" xmlns="http://www.w3.org/2000/svg">
<g id="#e91e63">
<path fill="#e91e63" opacity="1.00" d=" M 662.29 1.41 C 669.77 0.54 677.41 0.93 684.93 1.23 C 695.03 3.83 705.98 6.73 713.15 14.87 C 725.15 28.49 726.90 49.21 719.49 65.45 C 712.44 81.63 695.52 92.77 677.93 93.28 C 662.78 94.28 646.02 90.08 635.85 78.12 C 622.42 62.18 621.07 37.53 631.84 19.84 C 638.38 9.19 650.86 4.66 662.29 1.41 M 668.36 29.51 C 659.84 32.27 654.48 42.26 657.24 50.85 C 659.68 59.77 669.99 65.64 678.86 62.74 C 687.79 60.31 693.67 50.01 690.73 41.13 C 688.24 31.92 677.36 26.04 668.36 29.51 Z" />
<path fill="#e91e63" opacity="1.00" d=" M 1245.33 1.46 C 1252.82 0.49 1260.49 1.02 1268.04 1.16 C 1280.41 4.52 1294.37 9.12 1300.69 21.32 C 1313.01 42.47 1305.82 71.96 1285.39 85.33 C 1267.79 96.79 1243.74 95.49 1226.04 84.95 C 1204.98 69.72 1201.44 36.52 1217.27 16.34 C 1224.05 7.62 1235.19 4.45 1245.33 1.46 M 1252.37 29.51 C 1243.56 32.34 1238.18 42.92 1241.52 51.65 C 1244.33 60.14 1254.25 65.55 1262.86 62.75 C 1271.81 60.33 1277.59 50.00 1274.74 41.13 C 1272.23 31.93 1261.39 26.04 1252.37 29.51 Z" />
<path fill="#e91e63" opacity="1.00" d=" M 431.38 106.52 C 446.31 105.44 461.55 106.55 475.85 111.18 C 495.37 116.45 512.95 129.46 522.72 147.30 C 539.14 174.43 539.22 207.15 542.55 237.72 C 574.39 237.32 606.89 237.07 637.65 227.77 C 641.20 226.84 644.71 225.68 647.98 223.98 C 670.44 212.78 692.86 201.36 714.10 187.96 C 681.02 183.01 647.47 186.70 614.19 185.42 C 608.54 184.63 602.56 182.77 598.54 178.53 C 592.39 170.64 594.11 160.12 594.13 150.83 C 602.74 150.40 611.37 150.79 620.00 150.66 C 648.70 150.92 677.42 149.84 706.10 151.31 C 725.24 152.92 745.19 161.71 755.02 178.98 C 759.81 186.10 760.61 196.24 755.35 203.32 C 752.78 207.28 748.23 209.04 744.33 211.34 C 724.28 222.67 704.30 234.11 683.92 244.83 C 669.63 253.98 653.83 260.39 637.41 264.53 C 627.76 268.75 617.20 268.64 606.97 270.14 C 575.69 271.75 544.26 274.62 512.96 271.91 C 508.02 271.68 507.71 266.06 507.56 262.32 C 506.83 238.47 506.80 214.42 502.28 190.89 C 500.27 179.05 496.12 167.08 487.86 158.10 C 479.36 148.09 466.45 142.70 453.54 141.66 C 442.03 140.98 430.37 141.03 418.99 143.12 C 411.06 144.34 403.35 147.98 397.85 153.89 C 391.54 161.68 386.94 170.86 384.66 180.64 C 381.15 196.86 381.00 213.60 382.15 230.09 C 384.14 246.27 391.97 263.27 407.26 270.76 C 431.66 283.67 460.26 282.29 487.04 282.85 C 489.82 282.80 493.40 283.80 493.77 287.07 C 496.93 309.94 491.07 334.38 476.41 352.44 C 468.92 361.08 460.08 368.77 449.70 373.72 C 431.17 383.59 409.58 384.89 389.00 384.76 C 373.72 384.69 358.44 384.88 343.17 384.69 C 342.78 378.13 343.07 371.54 343.00 364.97 C 343.08 359.96 344.47 353.86 349.46 351.55 C 356.63 348.77 364.45 349.27 372.00 349.25 C 387.37 349.10 402.82 350.07 418.14 348.38 C 434.43 345.22 451.39 334.85 455.79 317.91 C 436.62 314.88 416.88 313.06 398.87 305.24 C 386.09 300.14 374.62 291.69 366.17 280.81 C 352.53 262.96 346.98 240.14 346.65 217.98 C 346.02 193.70 349.57 168.68 360.92 146.95 C 368.86 130.88 383.11 117.61 400.41 112.37 C 410.37 108.85 420.93 107.64 431.38 106.52 Z" />
<path fill="#e91e63" opacity="1.00" d=" M 608.41 106.64 C 638.90 105.80 669.48 106.54 700.01 106.28 C 716.74 105.87 733.41 108.80 749.36 113.73 C 761.62 118.78 773.63 125.41 782.46 135.51 C 800.77 154.74 809.04 182.36 806.28 208.56 C 803.75 220.27 797.44 231.61 786.78 237.72 C 757.35 254.66 727.80 271.41 698.32 288.26 C 668.67 305.17 634.98 314.35 601.02 316.63 C 581.49 317.41 561.91 317.06 542.38 317.72 C 539.17 326.26 538.12 335.48 535.07 344.10 C 530.09 359.53 522.14 374.15 511.00 386.00 C 488.44 411.65 454.94 426.75 420.99 428.42 C 400.66 428.60 380.33 428.28 360.00 428.34 C 355.29 428.41 350.48 427.08 346.61 424.36 C 343.30 420.81 342.89 415.62 342.98 411.00 C 343.12 405.46 342.72 399.91 343.23 394.39 C 365.82 394.22 388.41 394.47 411.00 394.44 C 418.18 394.80 425.22 393.10 432.34 392.42 C 463.59 386.99 491.43 364.07 502.20 334.15 C 507.41 320.02 507.49 304.79 507.96 289.95 C 507.86 286.92 509.80 283.55 513.10 283.42 C 543.05 281.00 573.22 283.86 603.12 280.49 C 616.90 279.66 630.64 277.63 643.95 273.87 C 657.02 269.72 669.46 263.86 681.68 257.69 C 707.96 242.62 734.38 227.78 760.58 212.56 C 766.37 209.25 769.89 202.60 769.99 196.00 C 770.93 183.99 765.77 172.09 757.61 163.45 C 747.81 152.34 733.75 145.26 719.30 142.63 C 677.65 139.45 635.84 142.09 594.14 141.08 C 594.17 133.36 593.23 125.44 594.78 117.84 C 596.24 111.48 602.39 107.76 608.41 106.64 Z" />
<path fill="#e91e63" opacity="1.00" d=" M 1179.41 106.64 C 1181.25 106.30 1183.13 106.27 1185.01 106.26 C 1219.01 106.34 1253.01 106.23 1287.02 106.32 C 1312.47 106.51 1338.77 112.93 1358.95 129.08 C 1376.51 143.96 1386.06 166.27 1389.51 188.64 C 1390.34 196.73 1389.54 204.95 1387.79 212.87 C 1385.37 224.46 1376.55 233.68 1366.60 239.52 C 1338.94 255.21 1311.31 270.95 1283.69 286.70 C 1251.43 305.56 1214.27 315.55 1177.01 316.85 C 1157.68 317.40 1138.34 317.41 1119.01 317.40 C 1101.78 317.51 1085.15 311.98 1069.36 305.60 C 1067.71 304.76 1066.12 306.00 1064.65 306.62 C 1051.59 313.51 1036.91 318.00 1022.03 317.36 C 992.72 315.95 962.88 320.57 934.09 313.12 C 932.67 317.64 932.04 322.37 930.88 326.96 C 923.76 354.65 909.61 381.02 888.21 400.28 C 871.02 415.62 848.82 424.99 825.92 427.16 C 818.97 427.87 811.99 428.58 805.00 428.52 C 784.66 428.48 764.33 428.34 744.00 428.34 C 739.29 428.41 734.48 427.08 730.62 424.37 C 727.30 420.82 726.89 415.62 726.98 411.00 C 727.11 405.46 726.71 399.91 727.23 394.39 C 748.82 394.18 770.41 394.55 791.99 394.38 C 804.96 393.88 818.24 395.65 830.88 391.90 C 861.55 384.43 885.73 359.07 895.76 329.67 C 900.80 312.59 900.98 294.64 901.56 276.99 C 901.57 272.78 901.29 268.46 902.53 264.39 C 904.99 263.82 906.77 266.15 908.68 267.31 C 916.49 273.95 926.59 276.71 936.18 279.71 C 945.49 282.63 955.37 282.12 965.00 282.28 C 986.00 282.29 1007.00 282.30 1028.01 282.28 C 1040.92 282.26 1053.31 275.08 1060.48 264.48 C 1063.05 261.96 1064.16 257.44 1067.63 256.19 C 1073.05 263.07 1078.56 270.28 1086.37 274.62 C 1098.25 281.75 1112.49 282.52 1126.00 282.29 C 1152.32 282.07 1178.83 283.36 1204.92 279.17 C 1227.95 275.67 1249.57 266.19 1269.68 254.73 C 1294.56 240.12 1319.94 226.38 1344.80 211.74 C 1350.57 207.97 1352.75 200.60 1352.67 194.01 C 1353.51 182.33 1347.29 171.57 1340.20 162.80 C 1326.80 149.40 1308.13 140.96 1289.04 141.34 C 1247.74 140.99 1206.42 141.47 1165.13 141.09 C 1165.09 133.59 1164.43 125.97 1165.56 118.54 C 1166.85 111.89 1173.09 107.74 1179.41 106.64 Z" />
<path fill="#e91e63" opacity="1.00" d=" M 162.38 107.49 C 178.57 106.90 196.48 111.91 206.47 125.48 C 219.61 145.39 214.75 175.19 195.57 189.56 C 176.43 203.24 148.45 202.40 129.91 188.08 C 118.01 177.95 113.88 160.98 115.64 145.91 C 116.92 135.14 121.41 124.02 130.51 117.55 C 139.51 110.44 151.19 108.13 162.38 107.49 M 159.36 136.52 C 150.82 139.26 145.45 149.26 148.27 157.86 C 150.67 166.79 161.00 172.67 169.87 169.72 C 178.81 167.34 184.65 156.99 181.73 148.14 C 179.26 138.92 168.37 133.05 159.36 136.52 Z" />
<path fill="#e91e63" opacity="1.00" d=" M 21.39 144.47 C 26.59 143.85 31.86 143.88 37.08 144.16 C 37.50 195.06 36.87 245.98 37.40 296.89 C 38.66 306.28 38.16 315.95 40.80 325.13 C 49.38 355.74 73.03 383.56 104.60 391.42 C 113.84 393.97 123.50 393.74 132.99 393.70 C 157.01 393.72 181.03 393.68 205.05 393.46 C 234.39 392.59 261.58 373.87 275.23 348.27 C 280.85 337.27 284.94 325.39 286.34 313.07 C 287.95 297.77 287.38 282.36 287.54 267.00 C 287.86 226.98 287.48 186.96 287.55 146.94 C 287.65 146.29 287.86 145.00 287.97 144.35 C 293.26 144.18 298.57 144.18 303.87 144.41 C 312.94 145.28 322.29 152.27 322.46 162.01 C 322.75 204.34 322.82 246.68 322.69 289.01 C 322.64 314.29 318.44 340.07 306.67 362.67 C 292.12 392.61 263.91 415.26 231.88 423.95 C 219.31 427.72 206.07 428.69 193.00 428.47 C 170.34 428.34 147.67 428.25 125.00 428.30 C 89.24 429.69 54.62 411.03 32.59 383.45 C 20.96 369.09 12.08 352.36 7.62 334.37 C 3.91 321.24 3.12 307.52 1.86 294.00 C 1.88 266.67 1.57 239.33 1.99 212.00 C 2.64 196.99 1.68 181.97 2.13 166.96 C 2.30 160.01 4.19 152.36 9.95 147.91 C 13.15 145.25 17.48 145.13 21.39 144.47 Z" />
<path fill="#e91e63" opacity="1.00" d=" M 46.11 144.16 C 51.42 143.89 56.75 143.99 62.07 144.07 C 70.52 144.22 78.00 150.68 80.40 158.61 C 81.50 164.33 80.87 170.21 81.02 176.00 C 81.16 215.00 81.25 254.00 81.21 293.00 C 81.35 301.42 80.48 310.21 83.89 318.16 C 91.51 337.12 111.85 349.36 132.01 349.25 C 153.66 349.23 175.32 349.29 196.97 349.22 C 218.72 348.27 240.22 331.31 242.74 309.06 C 242.80 261.06 242.69 213.04 242.78 165.03 C 242.55 158.10 245.51 150.31 252.04 147.13 C 260.34 144.46 269.18 144.07 277.84 144.14 C 278.11 199.11 277.61 254.08 277.50 309.05 C 275.85 344.64 246.22 375.15 211.99 382.07 C 187.52 385.99 162.67 383.82 138.01 384.47 C 106.49 385.14 73.77 370.29 57.32 342.68 C 49.96 330.11 46.27 315.54 46.09 301.02 C 46.02 262.35 46.11 223.67 46.26 185.00 C 45.92 171.39 45.80 157.76 46.11 144.16 Z" />
<path fill="#e91e63" opacity="1.00" d=" M 873.42 144.56 C 888.21 144.00 903.02 143.98 917.82 144.56 C 926.43 144.96 934.76 151.82 935.34 160.71 C 936.83 183.35 934.64 206.10 936.48 228.72 C 938.51 233.34 943.68 235.49 948.31 236.57 C 958.43 238.45 968.77 237.78 979.01 237.92 C 994.13 237.79 1009.45 238.49 1024.34 235.34 C 1031.29 210.45 1025.02 184.37 1028.39 159.10 C 1029.56 149.79 1039.35 144.62 1047.93 144.33 C 1062.65 144.11 1077.41 143.77 1092.10 144.75 C 1100.73 145.48 1107.54 153.47 1107.69 161.98 C 1107.91 183.66 1108.12 205.34 1108.31 227.03 C 1108.13 231.78 1112.16 235.56 1116.62 236.36 C 1129.27 238.77 1142.19 237.49 1154.97 237.32 C 1179.66 235.96 1204.77 233.78 1228.14 225.16 C 1251.85 213.96 1274.97 201.38 1297.45 187.91 C 1277.47 184.85 1257.16 185.18 1237.01 185.51 C 1221.00 185.35 1204.99 185.83 1188.98 185.63 C 1182.21 185.57 1175.09 183.66 1169.99 179.05 C 1163.32 171.22 1165.09 160.30 1165.13 150.83 C 1204.07 150.60 1243.04 150.32 1281.99 150.99 C 1297.20 151.49 1313.29 154.68 1325.22 164.72 C 1331.30 170.38 1337.59 176.41 1340.56 184.37 C 1342.58 189.42 1342.15 195.19 1340.19 200.19 C 1338.31 204.72 1333.99 207.47 1329.97 209.91 C 1302.77 225.24 1275.39 240.27 1247.65 254.60 C 1219.95 266.18 1189.84 270.32 1160.04 271.78 C 1138.74 273.55 1116.51 273.87 1096.38 265.64 C 1083.04 259.17 1074.80 244.79 1073.63 230.29 C 1072.78 213.26 1073.20 196.19 1073.09 179.16 C 1069.86 178.80 1066.59 178.66 1063.36 179.00 C 1060.91 202.14 1065.68 226.47 1056.56 248.61 C 1052.70 255.64 1048.13 262.98 1040.74 266.73 C 1034.68 270.06 1027.64 270.42 1020.94 271.30 C 1004.06 273.62 986.98 272.88 970.00 273.01 C 963.12 272.93 956.12 273.31 949.41 271.52 C 938.39 269.00 926.69 266.63 917.71 259.30 C 911.77 254.48 906.01 248.70 903.90 241.12 C 897.52 221.15 902.74 199.99 900.38 179.56 C 897.49 178.81 894.45 179.12 891.55 179.51 C 891.11 216.00 890.91 252.50 891.01 289.00 C 891.25 302.62 889.45 316.32 885.27 329.31 C 882.22 337.63 877.04 344.93 872.37 352.40 C 858.88 370.97 836.44 381.13 814.09 383.76 C 805.40 383.78 796.72 383.76 788.06 384.53 C 767.77 384.97 747.46 384.75 727.17 384.68 C 726.78 378.12 727.07 371.54 727.00 364.97 C 727.08 359.97 728.46 353.86 733.45 351.55 C 739.66 349.15 746.43 349.17 753.00 349.24 C 772.70 349.54 792.39 349.12 812.08 348.91 C 834.14 346.67 855.86 328.32 855.91 305.03 C 856.04 261.36 855.93 217.68 855.96 174.00 C 856.06 167.20 855.08 159.83 858.69 153.69 C 861.46 148.24 867.37 144.82 873.42 144.56 Z" />
<path fill="#e91e63" opacity="1.00" d=" M 432.30 151.37 C 444.43 149.92 457.39 150.84 468.38 156.58 C 477.32 160.84 485.08 168.27 488.20 177.84 C 496.42 195.30 496.97 215.04 496.38 233.98 C 495.87 244.94 497.18 256.07 494.74 266.87 C 494.23 269.27 492.80 272.04 490.02 272.18 C 466.59 273.58 442.13 274.02 419.98 265.04 C 409.59 262.66 401.29 254.74 396.64 245.38 C 391.61 232.63 391.82 218.58 392.38 205.10 C 394.03 190.55 394.87 174.52 405.08 163.01 C 411.64 154.91 422.52 152.77 432.30 151.37 M 439.31 184.34 C 430.61 185.60 425.98 194.88 426.61 202.98 C 427.21 212.42 424.03 222.77 428.51 231.54 C 436.19 240.28 449.41 237.51 459.73 237.57 C 462.00 234.55 461.58 230.56 461.59 227.01 C 461.05 217.29 461.81 207.50 460.27 197.84 C 458.55 188.67 448.40 182.00 439.31 184.34 Z" />
<path fill="#e91e63" opacity="1.00" d=" M 992.39 336.42 C 1001.61 334.55 1011.04 335.91 1020.16 337.72 C 1030.61 340.30 1040.78 346.15 1046.44 355.58 C 1056.91 373.83 1053.81 398.97 1038.77 413.81 C 1022.70 430.50 995.54 431.23 975.71 421.27 C 951.42 407.87 946.70 371.53 963.63 350.54 C 970.90 342.30 981.74 338.09 992.39 336.42 M 997.36 365.52 C 988.91 368.26 983.46 378.16 986.26 386.70 C 988.55 395.73 998.96 401.67 1007.87 398.72 C 1016.78 396.29 1022.69 386.01 1019.72 377.13 C 1017.27 367.90 1006.35 362.05 997.36 365.52 Z" />
</g>
</svg>
